<?xml version="1.0" encoding="UTF-8" standalone="no"?>
<svg width="30px" height="30px" viewBox="0 0 210 210" version="1.1" id="svg1" xml:space="preserve" xmlns="http://www.w3.org/2000/svg" xmlns:svg="http://www.w3.org/2000/svg">
    <g id="layer4">
        <path class="style_socialmedia_icons" d="M 104.80553,3.4954267 A 104.77777,104.77777 0 0 0 0.02790262,108.27306 104.77777,104.77777 0 0 0 71.504822,207.39668 l 0.179507,-0.27729 c 0,0 7.524329,1.79156 7.524329,-5.65275 v -25.3749 c 0,0 -4.420654,1.06995 -10.782412,1.06995 -6.361745,0 -11.963471,-1.12598 -15.453986,-2.9557 -3.490514,-1.82969 -6.474245,-4.36309 -8.050609,-7.14988 -1.576365,-2.78679 -2.536447,-6.35417 -4.248244,-8.98158 -1.711785,-2.62741 -4.060608,-6.76755 -7.683231,-9.23571 -3.622635,-2.46817 -6.250429,-4.73704 -5.295016,-5.93132 0.955413,-1.19429 3.503114,-1.91099 7.284988,-0.71673 3.78186,1.19428 6.847414,2.9059 8.718436,4.37884 1.871035,1.47294 5.055512,5.97161 5.931319,7.44455 0.875806,1.47294 4.657904,6.72734 9.036911,8.39933 4.379008,1.67198 11.385573,3.1055 20.780539,-1.07445 1.552547,-8.35992 3.6626,-11.06742 6.767708,-14.25215 -9.315335,-1.11466 -24.96073,-2.42828 -33.639126,-9.51431 C 43.89755,130.48656 39.199918,119.18109 38.801824,105.88483 38.40373,92.588576 39.996255,84.069268 48.754258,75.868584 46.047245,64.483161 46.047406,55.884557 49.789464,47.285791 c 7.722972,-4.219782 29.219742,11.146554 29.219742,11.146554 0,0 21.338164,-8.359921 53.105874,0 15.2867,-9.633809 20.78036,-12.261216 28.66257,-11.465029 3.58282,8.200684 5.41373,18.789421 1.43281,29.060181 10.74848,10.509617 11.38558,19.905205 10.58939,30.574063 -0.79619,10.66885 -3.85219,38.61042 -48.55332,40.52457 4.3913,4.05351 6.75341,9.23637 7.31074,14.01347 0.55733,4.77709 0,40.36693 0,40.36693 0,0 -0.0528,7.78272 8.12203,5.30338 A 104.77777,104.77777 0 0 0 209.58316,108.27306 104.77777,104.77777 0 0 0 104.80553,3.4954267 Z"/>
    </g>
</svg>