<?xml version="1.0" encoding="UTF-8" standalone="no"?>
<svg width="30px" height="30px" viewBox="0 0 210 210" version="1.1" id="svg1" xml:space="preserve" xmlns="http://www.w3.org/2000/svg" xmlns:svg="http://www.w3.org/2000/svg">
    <g id="layer7" style="display:inline">
        <path class="style_socialmedia_icons" d="m 104.87732,51.280686 a 54.063376,54.063376 0 0 0 -54.063534,54.063504 54.063376,54.063376 0 0 0 54.063534,54.06351 54.063376,54.063376 0 0 0 54.0635,-54.06351 54.063376,54.063376 0 0 0 -54.0635,-54.063504 z m -0.25875,19.111554 a 34.865718,34.865718 0 0 1 34.86636,34.86537 34.865718,34.865718 0 0 1 -34.86636,34.86635 34.865718,34.865718 0 0 1 -34.86539,-34.86635 34.865718,34.865718 0 0 1 34.86539,-34.86537 z" />
        <circle class="style_socialmedia_icons" cx="161.51521"  cy="48.934616"  r="12.633441" />
        <path class="style_socialmedia_icons" d="m 131.73541,0.11056918 c -2.78978,-0.00952 -4.49012,0.033507 -4.49012,0.033507 l -57.851185,0.3443393 c 0,0 -25.826888,-0.1721031 -39.342712,7.83411772 C 16.535569,16.328716 9.9936332,26.487101 5.3448885,37.506364 0.69612486,48.525646 0.09328805,74.007814 0.09328805,74.007814 v 30.647776 c 0,0 0.1721031,42.87113 1.54949905,52.85734 1.3774149,9.98622 5.2515814,24.27758 14.9795569,34.00552 9.727938,9.72798 23.501726,15.15113 34.865366,16.95897 11.363622,1.8079 50.75397,1.77382 50.75397,1.77382 0,0 43.46946,-0.0948 55.22046,-1.55837 11.75103,-1.46348 21.60848,-6.06912 21.60848,-6.06912 0,0 16.44308,-9.12511 23.67449,-23.93226 7.2313,-14.80717 7.05886,-38.13753 7.05886,-38.13753 l 0.34434,-42.527311 c 0,0 -0.0864,-39.6865 -1.98042,-50.189244 C 206.27393,37.334642 199.30092,25.281656 196.54611,22.182487 193.79128,19.083317 185.09629,8.9253512 169.7726,4.190517 158.27984,0.63936738 140.1048,0.13887868 131.73541,0.11062628 Z M 107.02006,18.895508 c 0,0 42.36769,-0.122224 52.47267,2.190964 10.10501,2.313187 15.76175,6.347387 19.24833,9.618736 3.48655,3.271348 9.60594,11.626707 11.06691,24.775384 1.46095,13.148658 1.3301,50.207938 1.3301,50.207938 0,0 1.3488,48.71154 -4.00804,60.88625 -5.35688,12.17468 -14.60987,21.54873 -32.75017,23.61842 -18.14029,2.06971 -49.30775,1.21795 -49.30775,1.21795 0,0 -44.680882,0.60874 -57.829559,-2.92192 -13.148677,-3.53067 -21.531716,-16.00345 -25.080353,-23.01042 -3.209837,-6.33797 -4.744391,-52.84464 -3.408917,-60.50847 0,0 -0.851986,-48.211788 3.530913,-59.899492 4.382879,-11.687705 15.46135,-20.818955 24.592372,-23.497404 9.131021,-2.678431 60.143494,-2.677936 60.143494,-2.677936 z" />
    </g>
</svg>