<?xml version="1.0" encoding="UTF-8" standalone="no"?>
<svg width="30px" height="30px" viewBox="0 0 210 210" version="1.1" id="svg1" xml:space="preserve" xmlns="http://www.w3.org/2000/svg" xmlns:svg="http://www.w3.org/2000/svg">
    <g id="layer2" style="display:inline">
        <path class="style_socialmedia_icons" d="m 106.60046,32.122891 c -37.417978,0.0929 -74.743468,2.22836 -82.264208,4.08533 -7.52072,1.85698 -11.88479,5.66434 -16.06298,10.67815 -4.17819,5.01382 -5.01344,12.62703 -6.49903,24.69735 -1.48556998,12.0703 -1.67164998,34.075969 -1.67164998,34.075969 0,0 0.18589,20.70504 1.57862998,35.56081 1.39272,14.85579 4.73509,20.9834 4.73509,20.9834 0,0 5.014,10.77062 19.40553,13.83464 14.39153,3.064 65.08684,3.52849 80.592548,3.43556 15.50571,-0.0928 57.38079,-1.39272 67.03702,-2.22835 9.65626,-0.83564 19.21927,-2.78582 25.81153,-9.09953 6.59226,-6.31371 6.6851,-13.18451 8.17068,-21.91227 1.48557,-8.72777 2.41444,-40.38894 2.41444,-40.38894 0,0 -0.83546,-23.862259 -1.76395,-34.261289 -0.92849,-10.39905 -2.97172,-22.09777 -8.44978,-27.39014 -5.47806,-5.29237 -6.96309,-6.12783 -16.43362,-8.44904 -9.47058,-2.32121 -39.18228,-3.7145 -76.60025,-3.62165 z m -23.053468,42.15513 54.279838,31.338159 -54.098258,31.23386 z" />
    </g>
</svg>