<?xml version="1.0" encoding="UTF-8"?>
<svg id="LAYERS" xmlns="http://www.w3.org/2000/svg" viewBox="0 0 570 570">
  <defs>
    <style>
      .cls-1 {
        fill: none;
        stroke: #fff;
        stroke-miterlimit: 10;
        stroke-width: 10px;
      }
    </style>
  </defs>
  <g id="luna">
    <path class="cls-1" d="m520.1,358.3c-5.9,16.4-43.9,115.8-147.9,155.3-62.4,23.6-117.8,14-134.2,10.7-15.5-3.2-71.4-16.3-121.3-64.9-65.4-63.7-73.5-142.5-75.3-163.4-2-22.9-5.4-69.2,17.1-118.4C103.4,79.2,216,53.1,233.6,49.3c-15.2,17.7-56.3,69.3-66.2,138.5-12.2,85,31.2,136.4,45.9,153.1,50.7,57.7,124.2,62.6,143.5,64.2,83.6,6.7,144.8-33.5,163.2-46.7Z"/>
  </g>
</svg>